<svg width="61" height="46" viewBox="0 0 61 46" fill="none" xmlns="http://www.w3.org/2000/svg">
<path d="M60.2677 33.6124H36.7325C36.3277 33.6124 36.0001 33.9137 36.0001 34.2862C36.0001 34.6586 36.3277 34.96 36.7325 34.96H60.2677C60.6725 34.96 61.0001 34.6586 61.0001 34.2862C61.0001 33.9137 60.6725 33.6124 60.2677 33.6124Z" fill="#DFE6F1"/>
<path d="M42.6407 22.7862H38.1974C37.7926 22.7862 37.465 23.0876 37.465 23.46V26.8291H43.3732V23.46C43.3732 23.0876 43.0456 22.7862 42.6407 22.7862Z" fill="#DFE6F1"/>
<path d="M43.3732 28.1768H37.465V32.2647H43.3732V28.1768Z" fill="#DFE6F1"/>
<path d="M50.6974 17.3956H46.3029C45.898 17.3956 45.5704 17.6969 45.5704 18.0694V26.8291H51.4298V18.0694C51.4298 17.6969 51.1022 17.3956 50.6974 17.3956Z" fill="#DFE6F1"/>
<path d="M51.4298 28.1768H45.5704V32.2647H51.4298V28.1768Z" fill="#DFE6F1"/>
<path d="M58.8029 11.96H54.3595C53.9547 11.96 53.6271 12.2614 53.6271 12.6338V18.7432H59.5353V12.6338C59.5353 12.2614 59.2077 11.96 58.8029 11.96Z" fill="#DFE6F1"/>
<path d="M59.5353 20.0909H53.6271V32.2647H59.5353V20.0909Z" fill="#DFE6F1"/>
</svg>
